<?xml version="1.0" encoding="iso-8859-1"?>
<!-- Generator: Adobe Illustrator 15.0.0, SVG Export Plug-In . SVG Version: 6.00 Build 0)  -->
<!DOCTYPE svg PUBLIC "-//W3C//DTD SVG 1.1//EN" "http://www.w3.org/Graphics/SVG/1.1/DTD/svg11.dtd">
<svg version="1.1" id="Layer_1" xmlns="http://www.w3.org/2000/svg" xmlns:xlink="http://www.w3.org/1999/xlink" x="0px" y="0px"
	 width="196.54px" height="131.994px" viewBox="0 0 196.54 131.994" style="enable-background:new 0 0 196.54 131.994;"
	 xml:space="preserve">
<path style="fill-rule:evenodd;clip-rule:evenodd;fill:#FFFFFF;" d="M41.547,55.92c0.75-1.741-0.834-10.644-1.416-11.332
	c-2.813-2.579-10.823-0.25-13.693,0.473C11.907,48.716,0.422,41.471,0,29.009c7.104-2.571,8.647-3.429,12.276-5.666
	c2.229-1.375,8.732-4.338,9.049-4.722c1.177-1.429,5.222-5.388,7.294-6.702c3.991-2.532,4.173-2.715,7.228-3.808
	c1.818-0.65,2.907-1.022,5.228-1.765c4.848-0.021,12.894-0.353,16.052,1.416c3.187,1.786,4.121,6.382,5.666,9.915
	c1.879,4.294,4.956,6.86,8.026,9.915c0.63,0.788,1.26,1.575,1.888,2.361c5.258,3.525,13.753,3.608,19.83,4.25
	c0.893,0.094,2.036,6.68,2.284,8.868c0.399,3.515,1.552,12.324,1.021,14.739c-1.025,4.674-1.732,6.064-4.71,8.622
	c-3.39,2.522-19.999,0.986-23.619,2.238c-4.418,1.529-9.575,3.992-13.221,6.609c-1.318,0.944-2.39,2.877-3.777,3.776
	c-2.584,1.679-7.745,2.021-10.858,2.832c-1.259,0-7.876,3.047-9.915,3.776c-3.248,1.168-7.568,1.265-10.386-0.471
	c-2.67-1.645-5.52-3.909-3.778-8.026c0.587-1.389,1.577-2.928,2.833-3.776c4.759-3.222,12.792-3.226,17.469-6.61 M74.984,63.889
	c-4.983-0.016-10.5-0.461-15.023,1.474c-3.145,1.347-6.307,3.655-8.971,5.665c-2.356,1.779-3.491,4.981-6.61,6.138
	c-1.73,0.158-3.461,0.315-5.193,0.471c-4.275,1.13-7.757,2.92-11.331,4.25c-4.54,1.69-6.595,0.997-8.026-1.887
	c-0.495-0.997,0.107-1.283,0.473-1.891c2.032-3.371,13.339-4.614,16.996-7.081c2.255-1.521,2.476-4.026,3.778-6.608
	c3.854-7.644,7.917-14.754,3.304-24.08c-4.721-2.432-8.416-0.58-13.219,0c-0.944-0.157-1.889-0.314-2.833-0.472
	c-2.695,0.637-7.648,2.602-11.803,1.416c-4.19-1.195-7.685-3.214-10.859-5.193c-0.305-0.871-0.472-2.204-0.472-2.833
	c0.157,0,0.315,0,0.472,0c0,0.156,0,0.314,0,0.472c1.979,0.052,2.939,0.127,3.777-0.944c0.421-0.796-0.777-1.953,0-3.305
	c3.462-1.416,6.925-2.833,10.387-4.249c5.131-3.377,8.712-8.814,13.691-12.276c2.156-1.499,5.961-1.417,8.026-2.833
	c3.144-0.058,7.617-0.454,9.442,0.944c0.907,1.358,0.476,5.691,0.945,9.443c-0.081,1.232,0.223,1.95-0.472,2.36
	c-4.036,2.38-3.355-5.554-5.666-8.498c-0.158-0.315-0.315-0.63-0.473-0.944c-1.251,0.362-1.101,0.603-2.36,0.944
	c0.095,4.909,0.524,8.791,3.304,10.859c3.722,2.768,6.327,3.32,8.971-0.473c1.51-2.168,0.646-5.734,0.161-8
	c-0.615-2.872,0.801-2.097,1.425-1.553c2.452,1.639,1.889,2.906,3.135,5.777c1.091,2.515,3.11,4.907,4.722,7.082
	c3.454,4.665,10.271,7.619,16.523,9.442c2.989,0.473,5.98,0.944,8.97,1.417c1.112,5.022,1.719,15.064,0,20.301
	c-1.503,4.584-6.985,5.298-9.442,5.195 M32.105,19.565c1.084-0.639,2.695-0.645,3.777,0c1.166,0.695,0.921,1.656,0.944,3.778
	c-2.094,1.277-3.277,0.931-5.723-0.201C30.977,20.854,30.302,20.627,32.105,19.565z"/>
<path style="fill-rule:evenodd;clip-rule:evenodd;fill:#FFFFFF;" d="M159.095,66.779c4.676,3.385,12.71,3.389,17.469,6.61
	c1.256,0.849,2.247,2.388,2.833,3.776c1.742,4.117-1.107,6.382-3.778,8.026c-2.818,1.735-7.139,1.639-10.386,0.471
	c-2.039-0.729-8.656-3.776-9.915-3.776c-3.113-0.812-8.274-1.153-10.858-2.832c-1.387-0.899-2.459-2.832-3.777-3.776
	c-3.646-2.617-8.802-5.08-13.221-6.609c-3.62-1.252-20.229,0.284-23.619-2.238c-2.978-2.557-3.685-3.948-4.71-8.622
	c-0.53-2.415,0.622-11.224,1.021-14.739c0.248-2.188,1.392-8.774,2.284-8.868c6.077-0.642,14.572-0.725,19.83-4.25
	c0.628-0.787,1.258-1.574,1.888-2.361c3.07-3.054,6.147-5.62,8.026-9.915c1.545-3.533,2.479-8.129,5.666-9.915
	c3.158-1.768,11.204-1.436,16.052-1.416c2.321,0.743,3.41,1.115,5.228,1.765c3.055,1.092,3.237,1.276,7.228,3.808
	c2.072,1.314,6.118,5.273,7.294,6.702c0.317,0.384,6.82,3.347,9.049,4.722c3.629,2.236,5.172,3.094,12.276,5.666
	c-0.422,12.462-11.907,19.708-26.439,16.053c-2.87-0.723-10.879-3.052-13.693-0.473c-0.581,0.688-2.165,9.591-1.416,11.332
	 M114.244,64.419c-2.457,0.104-7.939-0.611-9.442-5.195c-1.719-5.237-1.112-15.279,0-20.301c2.989-0.473,5.98-0.944,8.97-1.417
	c6.253-1.823,13.069-4.778,16.523-9.442c1.612-2.175,3.631-4.567,4.722-7.082c1.247-2.871,0.684-4.138,3.135-5.777
	c0.624-0.543,2.04-1.319,1.425,1.553c-0.484,2.266-1.349,5.833,0.161,8c2.644,3.793,5.249,3.241,8.971,0.473
	c2.78-2.068,3.209-5.95,3.304-10.859c-1.259-0.341-1.108-0.583-2.36-0.944c-0.158,0.314-0.315,0.629-0.473,0.944
	c-2.31,2.944-1.63,10.878-5.666,8.498c-0.695-0.41-0.392-1.127-0.472-2.36c0.469-3.752,0.038-8.085,0.945-9.443
	c1.825-1.398,6.298-1.002,9.442-0.944c2.065,1.415,5.871,1.334,8.026,2.833c4.979,3.462,8.56,8.898,13.691,12.276
	c3.462,1.416,6.925,2.833,10.387,4.249c0.777,1.353-0.421,2.509,0,3.305c0.837,1.072,1.798,0.996,3.777,0.944
	c0-0.158,0-0.315,0-0.472c0.157,0,0.315,0,0.472,0c0,0.629-0.167,1.961-0.472,2.833c-3.175,1.979-6.669,3.998-10.859,5.193
	c-4.155,1.186-9.108-0.779-11.803-1.416c-0.944,0.158-1.888,0.315-2.833,0.472c-4.803-0.58-8.498-2.432-13.219,0
	c-4.613,9.326-0.55,16.436,3.304,24.08c1.302,2.582,1.522,5.087,3.778,6.608c3.657,2.467,14.963,3.71,16.996,7.081
	c0.365,0.607,0.967,0.894,0.473,1.891c-1.431,2.884-3.487,3.577-8.026,1.887c-3.573-1.33-7.055-3.12-11.331-4.25
	c-1.732-0.155-3.463-0.312-5.193-0.471c-3.119-1.156-4.253-4.358-6.61-6.138c-2.665-2.01-5.827-4.318-8.971-5.665
	c-4.522-1.935-10.04-1.489-15.023-1.474 M163.874,23.143c-2.445,1.131-3.629,1.478-5.723,0.201c0.023-2.122-0.222-3.083,0.944-3.778
	c1.082-0.645,2.692-0.639,3.777,0C164.675,20.627,164.001,20.854,163.874,23.143z"/>
<g>
	<path style="fill:#FFFFFF;" d="M8.22,131.994v-42.99h13.71c2.64,0,4.915,0.261,6.825,0.78c1.91,0.521,3.48,1.26,4.71,2.22
		s2.14,2.136,2.73,3.525c0.59,1.391,0.885,2.955,0.885,4.695c0,1.06-0.165,2.08-0.495,3.06c-0.33,0.98-0.83,1.89-1.5,2.729
		c-0.67,0.841-1.51,1.591-2.52,2.25c-1.01,0.66-2.195,1.2-3.555,1.62c3.14,0.62,5.51,1.751,7.11,3.391c1.6,1.64,2.4,3.8,2.4,6.479
		c0,1.82-0.335,3.48-1.005,4.98c-0.67,1.5-1.65,2.79-2.94,3.87s-2.87,1.915-4.74,2.505s-4.005,0.885-6.405,0.885H8.22z
		 M14.04,108.264h7.68c1.64,0,3.06-0.18,4.26-0.539c1.2-0.36,2.195-0.86,2.985-1.5c0.79-0.641,1.375-1.415,1.755-2.325
		c0.379-0.91,0.57-1.905,0.57-2.985c0-2.52-0.76-4.369-2.28-5.55c-1.52-1.18-3.88-1.771-7.08-1.771h-7.89V108.264z M14.04,112.404
		v14.97h9.3c1.66,0,3.085-0.189,4.275-0.57c1.189-0.379,2.169-0.915,2.94-1.604c0.77-0.69,1.335-1.51,1.695-2.46
		s0.54-1.995,0.54-3.135c0-2.221-0.785-3.976-2.355-5.266c-1.57-1.29-3.945-1.935-7.125-1.935H14.04z"/>
	<path style="fill:#FFFFFF;" d="M93.569,110.514c0,3.221-0.51,6.176-1.53,8.865c-1.02,2.69-2.46,5.006-4.32,6.945
		c-1.86,1.94-4.095,3.445-6.705,4.515c-2.61,1.07-5.496,1.605-8.655,1.605c-3.16,0-6.04-0.535-8.64-1.605
		c-2.6-1.069-4.83-2.574-6.69-4.515c-1.86-1.939-3.3-4.255-4.32-6.945c-1.02-2.689-1.53-5.645-1.53-8.865
		c0-3.22,0.51-6.175,1.53-8.864c1.02-2.69,2.46-5.011,4.32-6.96c1.86-1.95,4.09-3.465,6.69-4.545s5.48-1.62,8.64-1.62
		c3.16,0,6.045,0.54,8.655,1.62c2.61,1.08,4.845,2.595,6.705,4.545c1.86,1.949,3.3,4.27,4.32,6.96
		C93.06,104.339,93.569,107.294,93.569,110.514z M87.6,110.514c0-2.64-0.36-5.01-1.08-7.109c-0.72-2.101-1.74-3.875-3.06-5.325
		s-2.92-2.565-4.8-3.345c-1.88-0.78-3.98-1.17-6.3-1.17c-2.3,0-4.39,0.39-6.27,1.17c-1.88,0.779-3.485,1.895-4.815,3.345
		s-2.355,3.225-3.075,5.325c-0.72,2.1-1.08,4.47-1.08,7.109c0,2.641,0.36,5.006,1.08,7.096c0.72,2.09,1.745,3.86,3.075,5.31
		c1.33,1.45,2.935,2.561,4.815,3.33c1.88,0.771,3.97,1.155,6.27,1.155c2.32,0,4.42-0.385,6.3-1.155c1.879-0.77,3.48-1.88,4.8-3.33
		c1.32-1.449,2.34-3.22,3.06-5.31C87.239,115.52,87.6,113.154,87.6,110.514z"/>
	<path style="fill:#FFFFFF;" d="M112.273,89.199c0.25,0.13,0.535,0.396,0.855,0.795l24.9,32.4c-0.06-0.521-0.1-1.025-0.12-1.516
		c-0.02-0.489-0.03-0.965-0.03-1.425v-30.45h5.1v42.99h-2.94c-0.46,0-0.845-0.08-1.155-0.24c-0.31-0.159-0.615-0.43-0.915-0.81
		l-24.87-32.37c0.04,0.5,0.07,0.99,0.09,1.47c0.02,0.48,0.03,0.92,0.03,1.32v30.63h-5.1v-42.99h3
		C111.638,89.004,112.023,89.069,112.273,89.199z"/>
	<path style="fill:#FFFFFF;" d="M186.508,89.004v4.74h-20.64v14.28h16.71v4.56h-16.71v14.67h20.64v4.74h-26.49v-42.99H186.508z"/>
</g>
</svg>
